<svg xmlns="http://www.w3.org/2000/svg" viewBox="0 0 32 32" width="100%" height="100%" shape-rendering="crispEdges">
  <!-- Colophon CMS — pixel icon: horizontal scroll + red wax seal -->
  <!-- LEFT ROLLER -->
  <rect x="3" y="7"  width="3"  height="1"  fill="#2a1a0a"/>
  <rect x="3" y="8"  width="1"  height="1"  fill="#2a1a0a"/>
  <rect x="5" y="8"  width="1"  height="1"  fill="#2a1a0a"/>
  <rect x="4" y="8"  width="1"  height="2"  fill="#a08020"/>
  <rect x="4" y="10" width="1"  height="3"  fill="#8b6914"/>
  <rect x="4" y="13" width="1"  height="6"  fill="#6b4f10"/>
  <rect x="4" y="19" width="1"  height="5"  fill="#4a3608"/>
  <rect x="4" y="24" width="1"  height="1"  fill="#2a1a0a"/>
  <rect x="3" y="9"  width="1"  height="16" fill="#2a1a0a"/>
  <rect x="5" y="9"  width="1"  height="16" fill="#2a1a0a"/>
  <rect x="3" y="25" width="3"  height="1"  fill="#2a1a0a"/>
  <!-- RIGHT ROLLER -->
  <rect x="26" y="8"  width="3"  height="1"  fill="#2a1a0a"/>
  <rect x="26" y="9"  width="1"  height="1"  fill="#2a1a0a"/>
  <rect x="28" y="9"  width="1"  height="1"  fill="#2a1a0a"/>
  <rect x="27" y="9"  width="1"  height="2"  fill="#a08020"/>
  <rect x="27" y="11" width="1"  height="3"  fill="#8b6914"/>
  <rect x="27" y="14" width="1"  height="6"  fill="#6b4f10"/>
  <rect x="27" y="20" width="1"  height="4"  fill="#4a3608"/>
  <rect x="27" y="24" width="1"  height="1"  fill="#2a1a0a"/>
  <rect x="26" y="10" width="1"  height="15" fill="#2a1a0a"/>
  <rect x="28" y="10" width="1"  height="15" fill="#2a1a0a"/>
  <rect x="26" y="25" width="3"  height="1"  fill="#2a1a0a"/>
  <!-- PARCHMENT -->
  <rect x="6"  y="9"  width="20" height="1"  fill="#2a1a0a"/>
  <rect x="6"  y="21" width="20" height="1"  fill="#2a1a0a"/>
  <rect x="6"  y="10" width="20" height="2"  fill="#f0e0c0"/>
  <rect x="6"  y="12" width="20" height="6"  fill="#d4bf90"/>
  <rect x="6"  y="18" width="20" height="3"  fill="#b89a6a"/>
  <!-- TEXT LINES -->
  <rect x="8"  y="12" width="6" height="1" fill="#5a4a2a"/>
  <rect x="15" y="12" width="6" height="1" fill="#5a4a2a"/>
  <rect x="22" y="12" width="3" height="1" fill="#5a4a2a"/>
  <rect x="8"  y="14" width="5" height="1" fill="#5a4a2a"/>
  <rect x="14" y="14" width="4" height="1" fill="#5a4a2a"/>
  <rect x="19" y="14" width="6" height="1" fill="#5a4a2a"/>
  <rect x="8"  y="16" width="9" height="1" fill="#5a4a2a"/>
  <rect x="18" y="16" width="4" height="1" fill="#5a4a2a"/>
  <rect x="23" y="16" width="2" height="1" fill="#5a4a2a"/>
  <rect x="8"  y="18" width="7" height="1" fill="#5a4a2a"/>
  <rect x="16" y="18" width="4" height="1" fill="#5a4a2a"/>
  <!-- RED WAX SEAL outline -->
  <rect x="22" y="16" width="1" height="1" fill="#2a1a0a"/>
  <rect x="21" y="17" width="1" height="1" fill="#2a1a0a"/>
  <rect x="23" y="17" width="1" height="1" fill="#2a1a0a"/>
  <rect x="24" y="17" width="1" height="1" fill="#2a1a0a"/>
  <rect x="20" y="18" width="1" height="1" fill="#2a1a0a"/>
  <rect x="25" y="18" width="1" height="1" fill="#2a1a0a"/>
  <rect x="19" y="19" width="1" height="1" fill="#2a1a0a"/>
  <rect x="25" y="19" width="1" height="1" fill="#2a1a0a"/>
  <rect x="20" y="20" width="1" height="1" fill="#2a1a0a"/>
  <rect x="24" y="20" width="1" height="1" fill="#2a1a0a"/>
  <rect x="21" y="21" width="1" height="1" fill="#2a1a0a"/>
  <rect x="23" y="21" width="1" height="1" fill="#2a1a0a"/>
  <rect x="22" y="22" width="1" height="1" fill="#2a1a0a"/>
  <!-- RED WAX SEAL body -->
  <rect x="22" y="17" width="1" height="1" fill="#b02020"/>
  <rect x="21" y="18" width="1" height="1" fill="#d43030"/>
  <rect x="22" y="18" width="1" height="1" fill="#f05050"/>
  <rect x="23" y="18" width="1" height="1" fill="#d43030"/>
  <rect x="24" y="18" width="1" height="1" fill="#b02020"/>
  <rect x="20" y="19" width="1" height="1" fill="#d43030"/>
  <rect x="21" y="19" width="1" height="1" fill="#d43030"/>
  <rect x="22" y="19" width="1" height="1" fill="#b02020"/>
  <rect x="23" y="19" width="1" height="1" fill="#8b1a1a"/>
  <rect x="24" y="19" width="1" height="1" fill="#8b1a1a"/>
  <rect x="21" y="20" width="1" height="1" fill="#b02020"/>
  <rect x="22" y="20" width="1" height="1" fill="#8b1a1a"/>
  <rect x="23" y="20" width="1" height="1" fill="#8b1a1a"/>
  <rect x="22" y="21" width="1" height="1" fill="#8b1a1a"/>
  <!-- RIBBON -->
  <rect x="21" y="22" width="1" height="1" fill="#c9a050"/>
  <rect x="21" y="23" width="1" height="1" fill="#c9a050"/>
  <rect x="20" y="24" width="1" height="1" fill="#c9a050"/>
  <rect x="20" y="25" width="1" height="1" fill="#c9a050"/>
  <rect x="19" y="26" width="1" height="1" fill="#c9a050"/>
  <rect x="19" y="27" width="1" height="1" fill="#c9a050"/>
</svg>
